<svg width="43" height="42" viewBox="0 0 43 42" fill="none" xmlns="http://www.w3.org/2000/svg">
<rect width="43" height="42" fill="#E5E5E5"/>
<g id="Home | Mobile" clip-path="url(#clip0_0_1)">
<rect width="320" height="2925" transform="translate(-87 -2772)" fill="#FFFAF5"/>
<g id="Group 9">
<rect id="Rectangle 20" x="-87" y="-13" width="323.902" height="166" fill="#391F00"/>
<g id="&#208;&#155;&#208;&#190;&#208;&#179;&#208;&#190;">
<g id="books-stack-of-three 2" clip-path="url(#clip1_0_1)">
<g id="Group">
<g id="Group_2">
<path id="Vector" d="M39.7512 14.9043C39.5783 13.6275 39.554 11.4285 40.7611 10.6901C40.7827 10.6766 40.7987 10.657 40.8176 10.6402C41.8045 10.3301 42.4875 9.89492 41.9514 9.30931L27.3933 5L3.82037 8.2197C3.82037 8.2197 1.12098 8.59874 1.36213 12.7188C1.49303 14.9612 2.20893 16.0624 2.83501 16.6044L0.900637 17.1771C0.363744 17.7627 1.0466 18.1981 2.03362 18.5076C2.05238 18.5249 2.0682 18.5444 2.09015 18.5579C3.2965 19.2969 3.27327 21.4957 3.09975 22.7727C-1.23405 23.9817 0.32164 24.3756 0.32164 24.3756L1.2723 24.6016C0.603611 25.1952 -0.0604876 26.3209 0.0639113 28.4559C0.305181 32.5752 2.52242 32.8595 2.52242 32.8595L17.9484 37.7852L41.232 32.2448C41.232 32.2448 42.7882 31.8502 38.4533 30.6412C38.279 29.3662 38.2547 27.1676 39.4639 26.4267C39.4861 26.4136 39.5023 26.3936 39.5203 26.3771C40.5073 26.067 41.1897 25.6322 40.6534 25.0466L39.6414 24.7464C40.3163 24.3465 41.3301 23.3015 41.489 20.5871C41.5986 18.72 41.1028 17.6265 40.5289 16.9827L42.5292 16.5072C42.5293 16.5079 44.0855 16.1133 39.7512 14.9043ZM20.2759 14.8515L24.1913 14.061L37.4232 11.3896L39.3946 10.9913C38.7647 12.1239 38.7911 13.6739 38.8954 14.6701C38.9182 14.8955 38.9445 15.1013 38.97 15.2577L36.8122 15.7848L20.1113 19.8664L20.2759 14.8515ZM3.45675 18.8604L5.42786 19.2587L18.1353 21.825L19.2454 22.0484L22.5746 22.7206L22.7388 27.7356L5.57382 23.5402L3.88162 23.1271C3.9065 22.9704 3.93278 22.7648 3.95664 22.5388C4.06024 21.5433 4.08716 19.993 3.45675 18.8604ZM2.69096 12.5205C2.6671 11.4246 2.86588 10.6321 3.26766 10.2292C3.52335 9.972 3.82509 9.91848 4.03204 9.91848C4.14139 9.91848 4.22011 9.9334 4.22547 9.9334L14.3824 13.1864L19.4498 14.8095L19.2836 19.8595L5.06742 15.944L4.3172 15.7376C4.28964 15.7299 4.25226 15.7246 4.22343 15.7234C4.16486 15.7193 2.75935 15.5922 2.69096 12.5205ZM17.9851 35.5974L3.01912 31.4753C2.99143 31.4674 2.95443 31.4622 2.9256 31.4608C2.86601 31.4569 1.45986 31.3299 1.39185 28.259C1.36761 27.1617 1.56741 26.3699 1.96843 25.9667C2.22475 25.7095 2.52663 25.656 2.73319 25.656C2.84279 25.656 2.92126 25.6704 2.927 25.6704C2.927 25.6704 2.92764 25.6704 2.927 25.6704L18.1504 30.5473L17.9851 35.5974ZM37.5961 30.4073C37.6197 30.6334 37.646 30.8388 37.6715 30.9955L18.8124 35.6045L18.9773 30.5895L23.0092 29.7752L23.6046 29.9167L25.8364 29.2041L36.124 27.1273L38.0961 26.7287C37.4656 27.8612 37.4918 29.4118 37.5961 30.4073ZM38.635 23.5917C38.6006 23.5925 38.5663 23.597 38.534 23.607L37.1117 23.9982L23.5684 27.7289L23.4028 22.679L27.8462 21.2552L38.6054 17.8081C38.6068 17.8075 39.1713 17.6843 39.5857 18.0983C39.9869 18.5011 40.1859 19.2937 40.1624 20.3896C40.0923 23.4602 38.6861 23.5878 38.635 23.5917Z" fill="white"/>
</g>
</g>
</g>
</g>
</g>
</g>
<defs>
<clipPath id="clip0_0_1">
<rect width="320" height="2925" fill="white" transform="translate(-87 -2772)"/>
</clipPath>
<clipPath id="clip1_0_1">
<rect width="42.7524" height="42" fill="white" transform="translate(0.0487823)"/>
</clipPath>
</defs>
</svg>
