<svg width="42.000000" height="32.785156" viewBox="0 0 42 32.7852" fill="none" xmlns="http://www.w3.org/2000/svg" xmlns:xlink="http://www.w3.org/1999/xlink">
	<desc>
			Created with Pixso.
	</desc>
	<defs/>
	<path id="Vector" d="M39.0039 9.9043C38.834 8.62744 38.8101 6.42871 39.9956 5.68994C40.0171 5.67676 40.0327 5.65723 40.0513 5.64014C41.021 5.33008 41.6919 4.89502 41.165 4.30908L26.8633 0L3.70508 3.21973C3.70508 3.21973 1.05322 3.59863 1.29004 7.71875C1.41895 9.96094 2.12207 11.0625 2.7373 11.6045L0.836914 12.1772C0.30957 12.7627 0.980469 13.1982 1.94971 13.5078C1.96826 13.5249 1.98389 13.5444 2.00537 13.5581C3.19043 14.2969 3.16797 16.4956 2.99707 17.7729C-1.26025 18.9814 0.268066 19.3755 0.268066 19.3755L1.20215 19.6016C0.544922 20.1953 -0.107422 21.3208 0.0146484 23.4561C0.251953 27.5752 2.43018 27.8594 2.43018 27.8594L17.5845 32.7852L40.4585 27.2446C40.4585 27.2446 41.9873 26.8501 37.7285 25.6411C37.5571 24.3662 37.5337 22.1675 38.7212 21.4268C38.7432 21.4136 38.7593 21.3936 38.7769 21.377C39.7466 21.0669 40.417 20.6323 39.8901 20.0464L38.896 19.7466C39.5586 19.3467 40.5547 18.3018 40.7109 15.5869C40.8184 13.7202 40.3315 12.6265 39.7676 11.9829L41.7329 11.5073C41.7329 11.5078 43.2617 11.1133 39.0039 9.9043ZM19.8711 9.85156L23.7178 9.06104L36.7168 6.38965L38.6533 5.99121C38.0347 7.12402 38.0605 8.67383 38.1631 9.66992C38.1855 9.89551 38.2109 10.1011 38.2363 10.2578L36.1162 10.7847L19.7095 14.8662L19.8711 9.85156ZM3.34814 13.8604L5.28418 14.2588L17.7681 16.8252L18.8589 17.0483L22.1294 17.7207L22.2905 22.7354L5.42773 18.54L3.76514 18.127C3.79004 17.9702 3.81543 17.7646 3.83887 17.5391C3.94092 16.5435 3.96729 14.9932 3.34814 13.8604ZM2.5957 7.52051C2.57227 6.4248 2.76758 5.63184 3.16211 5.229C3.41357 4.97217 3.70996 4.91846 3.91309 4.91846C4.02051 4.91846 4.09814 4.93359 4.10303 4.93359L14.0815 8.18652L19.0596 9.80957L18.8965 14.8594L4.93018 10.9438L4.19336 10.7378C4.16602 10.73 4.12939 10.7246 4.10107 10.7236C4.04346 10.7192 2.66309 10.5923 2.5957 7.52051ZM17.6206 30.5972L2.91797 26.4751C2.89062 26.4673 2.85449 26.4619 2.82617 26.4609C2.76758 26.457 1.38623 26.3301 1.31934 23.2588C1.29541 22.1616 1.4917 21.3701 1.88574 20.9668C2.1377 20.7095 2.43408 20.6558 2.63721 20.6558C2.74463 20.6558 2.82178 20.6704 2.82764 20.6704L17.7832 25.5474L17.6206 30.5972ZM36.8867 25.4072C36.9097 25.6333 36.9355 25.8389 36.9604 25.9956L18.4336 30.6045L18.5952 25.5894L22.5562 24.7754L23.1411 24.9165L25.334 24.2041L35.4404 22.1274L37.3779 21.7285C36.7583 22.8613 36.7842 24.4116 36.8867 25.4072ZM37.9072 18.5918C37.8735 18.5923 37.8398 18.5972 37.8081 18.6069L36.4106 18.998L23.1055 22.729L22.9429 17.6792L27.3081 16.2554L37.8779 12.8081C37.8794 12.8076 38.4341 12.6841 38.8413 13.0981C39.2354 13.501 39.4307 14.2935 39.4077 15.3896C39.3389 18.4604 37.9575 18.5879 37.9072 18.5918Z" fill="#FFFFFF" fill-opacity="1.000000" fill-rule="nonzero"/>
</svg>
